# xmcd
#
# Track frame offsets:
#	150
#	17375
#	36547
#	52277
#	65957
#	91055
#	107075
#	126507
#	140440
#	153800
#	167537
#	186555
#	206380
#	229827
#	244352
#
# Disc length: 3342 seconds
#
# Revision: 0
# Processed by: cddbd v1.5.2PL0 Copyright (c) Steve Scherf et al.
# Submitted via: SynApp - FreeCDDB Version: 2.3
#
DISCID=da0d0c0f
DTITLE=ZZ Top - ZZ Top - Mescalero
DYEAR=2003
DGENRE=Rock
TTITLE0=Mescalero
TTITLE1=Two ways to play
TTITLE2=Alley-gator
TTITLE3=Buck nekkid
TTITLE4=Goin' so good
TTITLE5=me so stupid
TTITLE6=Piece
TTITLE7=Punk ass boyfriend
TTITLE8=Stackin' paper
TTITLE9=What would you do
TTITLE10=What It is Kid
TTITLE11=Que lastima
TTITLE12=tramp
TTITLE13=Crunchy
TTITLE14=Dusted
EXTD=
EXTT0=
EXTT1=
EXTT2=
EXTT3=
EXTT4=
EXTT5=
EXTT6=
EXTT7=
EXTT8=
EXTT9=
EXTT10=
EXTT11=
EXTT12=
EXTT13=
EXTT14=
PLAYORDER=
